<?xml version="1.0" encoding="UTF-8"?>
<svg id="Layer_2" data-name="Layer 2" xmlns="http://www.w3.org/2000/svg" viewBox="0 0 947 947">
  <defs>
    <style>
      .cls-1 {
        stroke-width: 0px;
      }
    </style>
  </defs>
  <g id="Layer_1-2" data-name="Layer 1">
    <g>
      <path class="cls-1" d="M473.5,0C211.99,0,0,211.99,0,473.5s211.99,473.5,473.5,473.5,473.5-211.99,473.5-473.5S735.01,0,473.5,0ZM473.5,833.25c-198.68,0-359.75-161.07-359.75-359.75S274.82,113.75,473.5,113.75s359.75,161.07,359.75,359.75-161.07,359.75-359.75,359.75Z"/>
      <path class="cls-1" d="M650.03,413.29h-208.62l75.25-75.25c23.48-23.48,23.48-61.55,0-85.03h0c-23.48-23.48-61.55-23.48-85.03,0l-177.18,177.18c-11.83,11.83-17.69,27.37-17.6,42.87,0,.11,0,.23,0,.34h0c0,.14,0,.28.01.42-.11,15.53,5.75,31.11,17.6,42.96l177.18,177.18c23.48,23.48,61.55,23.48,85.03,0h0c23.48-23.48,23.48-61.55,0-85.03l-75.41-75.41h208.78c33.2,0,60.12-26.92,60.12-60.12h0c0-33.21-26.92-60.12-60.12-60.12Z"/>
    </g>
  </g>
</svg>