<?xml version="1.0" encoding="UTF-8"?>
<svg id="Layer_2" data-name="Layer 2" xmlns="http://www.w3.org/2000/svg" viewBox="0 0 947.01 947.01">
  <defs>
    <style>
      .cls-1 {
        stroke-width: 0px;
      }
    </style>
  </defs>
  <g id="Layer_1-2" data-name="Layer 1">
    <g>
      <path class="cls-1" d="M.26,458.08c-8.52,261.37,196.45,480.16,457.82,488.68,261.37,8.52,480.16-196.45,488.68-457.82C955.27,227.57,750.3,8.78,488.93.26,227.57-8.26,8.78,196.71.26,458.08ZM113.95,461.78c6.47-198.58,172.7-354.31,371.28-347.84,198.58,6.47,354.31,172.7,347.84,371.28-6.47,198.58-172.7,354.31-371.28,347.84-198.58-6.47-354.31-172.7-347.84-371.28Z"/>
      <path class="cls-1" d="M296.97,413.3h208.62s-75.25-75.25-75.25-75.25c-23.48-23.48-23.48-61.55,0-85.03h0c23.48-23.48,61.55-23.48,85.03,0l177.18,177.18c11.83,11.83,17.69,27.37,17.6,42.87,0,.11,0,.23,0,.34h0c0,.14,0,.28-.01.42.11,15.53-5.75,31.11-17.6,42.96l-177.18,177.18c-23.48,23.48-61.55,23.48-85.03,0h0c-23.48-23.48-23.48-61.55,0-85.03l75.41-75.41h-208.78c-33.2,0-60.12-26.92-60.12-60.12h0c0-33.21,26.92-60.12,60.12-60.12Z"/>
    </g>
  </g>
</svg>