<svg width="233" height="36" fill="none" xmlns="http://www.w3.org/2000/svg">
    <g clip-path="url(#a)">
        <path d="M48.587 1.107 37.913 35.134h-8.341L24.47 14.441h-.089l-5.359 20.693h-8.356L0 1.107h9.796L14.8 20.074h.118l4.576-18.967h9.67l4.511 18.967h.118l4.983-18.967h9.81ZM64.62 29.634H53.608l-1.727 5.5h-9.597L54.714 1.107h8.777l12.46 34.027h-9.595l-1.735-5.5Zm-2.406-7.644-3.063-9.772h-.096l-3.071 9.772h6.23ZM80.13 9.226h-8.733V1.107h26.575v8.12h-8.71v25.907H80.13V9.226Z" fill="#DB0660"/>
        <path d="M117.711 27.827a9.968 9.968 0 0 1-7.015-2.88 9.784 9.784 0 0 1-2.906-6.95 9.784 9.784 0 0 1 2.906-6.952 9.968 9.968 0 0 1 7.015-2.88c1.5.002 2.979.34 4.328.988a9.904 9.904 0 0 1 3.46 2.758l5.706-4.835a18.323 18.323 0 0 0-6.275-4.833 18.497 18.497 0 0 0-7.75-1.75c-11.442 0-17.909 7.877-17.909 17.555 0 11.337 8.349 17.415 17.909 17.415a18.16 18.16 0 0 0 7.754-1.682 17.997 17.997 0 0 0 6.271-4.82l-5.728-4.879a9.887 9.887 0 0 1-3.449 2.755 9.985 9.985 0 0 1-4.317.99ZM133.878 1.107h9.301v13.568h10.335V1.107h9.294v34.027h-9.272V22.7h-10.335v12.434h-9.323V1.107ZM168.454 1.107h9.323v34.027h-9.323V1.107ZM183.085 1.107h9.249v25.937h13.642v8.09h-22.884l-.007-34.027ZM209.32 1.107h9.25v25.937h13.642v8.09h-22.884l-.008-34.027Z" fill="#fff"/>
        <path d="M124.658 18.12a6.63 6.63 0 0 1-1.967 4.71 6.759 6.759 0 0 1-9.506.003 6.633 6.633 0 0 1-1.969-4.712c0-.875.174-1.741.512-2.55a6.645 6.645 0 0 1 1.458-2.16 6.728 6.728 0 0 1 2.182-1.442 6.772 6.772 0 0 1 2.573-.505 6.578 6.578 0 0 1 2.606.527c-.469.25-.861.623-1.134 1.076a2.904 2.904 0 0 0 .448 3.568 2.967 2.967 0 0 0 4.517-.409c.187.614.282 1.253.28 1.895Z" fill="#DB0660"/>
    </g>
    <defs>
        <clipPath id="a">
            <path fill="#fff" transform="translate(0 .5)" d="M0 0h232.204v35H0z"/>
        </clipPath>
    </defs>
</svg>
